<svg width="1680" height="593" viewBox="0 0 1680 593" fill="none" xmlns="http://www.w3.org/2000/svg">
<path d="M0 0H1680V593H0V0Z" fill="#E5E5E5"/>
<path d="M0.5 592.293V0.706722L838.498 296.5L0.5 592.293ZM2.91873 592.5L840 297.03L1677.08 592.5H2.91873ZM1679.5 592.293L841.502 296.5L1679.5 0.706707V592.293ZM1677.08 0.5L840 295.97L2.91871 0.5H1677.08Z" stroke="black" stroke-opacity="0.3"/>
<path d="M659.872 311V298.52L660.688 300.728L646.432 277.4H650.224L662.752 297.896H660.736L673.264 277.4H676.816L662.56 300.728L663.376 298.52V311H659.872ZM688.297 311.24C685.865 311.24 683.673 310.696 681.721 309.608C679.801 308.488 678.281 306.968 677.161 305.048C676.041 303.096 675.481 300.872 675.481 298.376C675.481 295.848 676.041 293.624 677.161 291.704C678.281 289.784 679.801 288.28 681.721 287.192C683.641 286.104 685.833 285.56 688.297 285.56C690.793 285.56 693.001 286.104 694.921 287.192C696.873 288.28 698.393 289.784 699.481 291.704C700.601 293.624 701.161 295.848 701.161 298.376C701.161 300.872 700.601 303.096 699.481 305.048C698.393 306.968 696.873 308.488 694.921 309.608C692.969 310.696 690.761 311.24 688.297 311.24ZM688.297 308.216C690.121 308.216 691.737 307.816 693.145 307.016C694.553 306.184 695.657 305.032 696.457 303.56C697.289 302.056 697.705 300.328 697.705 298.376C697.705 296.392 697.289 294.664 696.457 293.192C695.657 291.72 694.553 290.584 693.145 289.784C691.737 288.952 690.137 288.536 688.345 288.536C686.553 288.536 684.953 288.952 683.545 289.784C682.137 290.584 681.017 291.72 680.185 293.192C679.353 294.664 678.937 296.392 678.937 298.376C678.937 300.328 679.353 302.056 680.185 303.56C681.017 305.032 682.137 306.184 683.545 307.016C684.953 307.816 686.537 308.216 688.297 308.216ZM717.815 311.24C715.671 311.24 713.799 310.84 712.199 310.04C710.599 309.24 709.351 308.04 708.455 306.44C707.591 304.84 707.159 302.84 707.159 300.44V285.8H710.567V300.056C710.567 302.744 711.223 304.776 712.535 306.152C713.879 307.496 715.751 308.168 718.151 308.168C719.911 308.168 721.431 307.816 722.711 307.112C724.023 306.376 725.015 305.32 725.687 303.944C726.391 302.568 726.743 300.92 726.743 299V285.8H730.151V311H726.887V304.088L727.415 305.336C726.615 307.192 725.367 308.648 723.671 309.704C722.007 310.728 720.055 311.24 717.815 311.24ZM738.929 311V285.8H742.193V292.664L741.857 291.464C742.561 289.544 743.745 288.088 745.409 287.096C747.073 286.072 749.137 285.56 751.601 285.56V288.872C751.473 288.872 751.345 288.872 751.217 288.872C751.089 288.84 750.961 288.824 750.833 288.824C748.177 288.824 746.097 289.64 744.593 291.272C743.089 292.872 742.337 295.16 742.337 298.136V311H738.929ZM769.317 311V285.8H772.725V311H769.317ZM771.045 280.232C770.341 280.232 769.749 279.992 769.269 279.512C768.789 279.032 768.549 278.456 768.549 277.784C768.549 277.112 768.789 276.552 769.269 276.104C769.749 275.624 770.341 275.384 771.045 275.384C771.749 275.384 772.341 275.608 772.821 276.056C773.301 276.504 773.541 277.064 773.541 277.736C773.541 278.44 773.301 279.032 772.821 279.512C772.373 279.992 771.781 280.232 771.045 280.232ZM812.976 285.56C815.024 285.56 816.8 285.96 818.304 286.76C819.84 287.528 821.024 288.712 821.856 290.312C822.72 291.912 823.152 293.928 823.152 296.36V311H819.744V296.696C819.744 294.04 819.104 292.04 817.824 290.696C816.576 289.32 814.8 288.632 812.496 288.632C810.768 288.632 809.264 289 807.984 289.736C806.736 290.44 805.76 291.48 805.056 292.856C804.384 294.2 804.048 295.832 804.048 297.752V311H800.64V296.696C800.64 294.04 800 292.04 798.72 290.696C797.44 289.32 795.648 288.632 793.344 288.632C791.648 288.632 790.16 289 788.88 289.736C787.6 290.44 786.608 291.48 785.904 292.856C785.232 294.2 784.896 295.832 784.896 297.752V311H781.488V285.8H784.752V292.616L784.224 291.416C784.992 289.592 786.224 288.168 787.92 287.144C789.648 286.088 791.68 285.56 794.016 285.56C796.48 285.56 798.576 286.184 800.304 287.432C802.032 288.648 803.152 290.488 803.664 292.952L802.32 292.424C803.056 290.376 804.352 288.728 806.208 287.48C808.096 286.2 810.352 285.56 812.976 285.56ZM847.466 311V305.432L847.322 304.52V295.208C847.322 293.064 846.714 291.416 845.498 290.264C844.314 289.112 842.538 288.536 840.17 288.536C838.538 288.536 836.986 288.808 835.514 289.352C834.042 289.896 832.794 290.616 831.77 291.512L830.234 288.968C831.514 287.88 833.05 287.048 834.842 286.472C836.634 285.864 838.522 285.56 840.506 285.56C843.77 285.56 846.282 286.376 848.042 288.008C849.834 289.608 850.73 292.056 850.73 295.352V311H847.466ZM838.778 311.24C836.89 311.24 835.242 310.936 833.834 310.328C832.458 309.688 831.402 308.824 830.666 307.736C829.93 306.616 829.562 305.336 829.562 303.896C829.562 302.584 829.866 301.4 830.474 300.344C831.114 299.256 832.138 298.392 833.546 297.752C834.986 297.08 836.906 296.744 839.306 296.744H847.994V299.288H839.402C836.97 299.288 835.274 299.72 834.314 300.584C833.386 301.448 832.922 302.52 832.922 303.8C832.922 305.24 833.482 306.392 834.602 307.256C835.722 308.12 837.29 308.552 839.306 308.552C841.226 308.552 842.874 308.12 844.25 307.256C845.658 306.36 846.682 305.08 847.322 303.416L848.09 305.768C847.45 307.432 846.33 308.76 844.73 309.752C843.162 310.744 841.178 311.24 838.778 311.24ZM870.018 320.552C867.714 320.552 865.506 320.216 863.394 319.544C861.282 318.872 859.57 317.912 858.258 316.664L859.986 314.072C861.17 315.128 862.626 315.96 864.354 316.568C866.114 317.208 867.97 317.528 869.922 317.528C873.122 317.528 875.474 316.776 876.978 315.272C878.482 313.8 879.234 311.496 879.234 308.36V302.072L879.714 297.752L879.378 293.432V285.8H882.642V307.928C882.642 312.28 881.57 315.464 879.426 317.48C877.314 319.528 874.178 320.552 870.018 320.552ZM869.394 310.04C866.994 310.04 864.834 309.528 862.914 308.504C860.994 307.448 859.474 305.992 858.354 304.136C857.266 302.28 856.722 300.152 856.722 297.752C856.722 295.352 857.266 293.24 858.354 291.416C859.474 289.56 860.994 288.12 862.914 287.096C864.834 286.072 866.994 285.56 869.394 285.56C871.634 285.56 873.65 286.024 875.442 286.952C877.234 287.88 878.658 289.256 879.714 291.08C880.77 292.904 881.298 295.128 881.298 297.752C881.298 300.376 880.77 302.6 879.714 304.424C878.658 306.248 877.234 307.64 875.442 308.6C873.65 309.56 871.634 310.04 869.394 310.04ZM869.73 307.016C871.586 307.016 873.234 306.632 874.674 305.864C876.114 305.064 877.25 303.976 878.082 302.6C878.914 301.192 879.33 299.576 879.33 297.752C879.33 295.928 878.914 294.328 878.082 292.952C877.25 291.576 876.114 290.504 874.674 289.736C873.234 288.936 871.586 288.536 869.73 288.536C867.906 288.536 866.258 288.936 864.786 289.736C863.346 290.504 862.21 291.576 861.378 292.952C860.578 294.328 860.178 295.928 860.178 297.752C860.178 299.576 860.578 301.192 861.378 302.6C862.21 303.976 863.346 305.064 864.786 305.864C866.258 306.632 867.906 307.016 869.73 307.016ZM902.11 311.24C899.486 311.24 897.182 310.696 895.198 309.608C893.214 308.488 891.662 306.968 890.542 305.048C889.422 303.096 888.862 300.872 888.862 298.376C888.862 295.88 889.39 293.672 890.446 291.752C891.534 289.832 893.006 288.328 894.862 287.24C896.75 286.12 898.862 285.56 901.198 285.56C903.566 285.56 905.662 286.104 907.486 287.192C909.342 288.248 910.798 289.752 911.854 291.704C912.91 293.624 913.438 295.848 913.438 298.376C913.438 298.536 913.422 298.712 913.39 298.904C913.39 299.064 913.39 299.24 913.39 299.432H891.454V296.888H911.566L910.222 297.896C910.222 296.072 909.822 294.456 909.022 293.048C908.254 291.608 907.198 290.488 905.854 289.688C904.51 288.888 902.958 288.488 901.198 288.488C899.47 288.488 897.918 288.888 896.542 289.688C895.166 290.488 894.094 291.608 893.326 293.048C892.558 294.488 892.174 296.136 892.174 297.992V298.52C892.174 300.44 892.59 302.136 893.422 303.608C894.286 305.048 895.47 306.184 896.974 307.016C898.51 307.816 900.254 308.216 902.206 308.216C903.742 308.216 905.166 307.944 906.478 307.4C907.822 306.856 908.974 306.024 909.934 304.904L911.854 307.112C910.734 308.456 909.326 309.48 907.63 310.184C905.966 310.888 904.126 311.24 902.11 311.24ZM944.361 285.56C946.409 285.56 948.201 285.96 949.737 286.76C951.305 287.528 952.521 288.712 953.385 290.312C954.281 291.912 954.729 293.928 954.729 296.36V311H951.321V296.696C951.321 294.04 950.649 292.04 949.305 290.696C947.993 289.32 946.137 288.632 943.737 288.632C941.945 288.632 940.377 289 939.033 289.736C937.721 290.44 936.697 291.48 935.961 292.856C935.257 294.2 934.905 295.832 934.905 297.752V311H931.497V275.384H934.905V292.712L934.233 291.416C935.033 289.592 936.313 288.168 938.073 287.144C939.833 286.088 941.929 285.56 944.361 285.56ZM973.918 311.24C971.294 311.24 968.99 310.696 967.006 309.608C965.022 308.488 963.47 306.968 962.35 305.048C961.23 303.096 960.67 300.872 960.67 298.376C960.67 295.88 961.198 293.672 962.254 291.752C963.342 289.832 964.814 288.328 966.67 287.24C968.558 286.12 970.67 285.56 973.006 285.56C975.374 285.56 977.47 286.104 979.294 287.192C981.15 288.248 982.606 289.752 983.662 291.704C984.718 293.624 985.246 295.848 985.246 298.376C985.246 298.536 985.23 298.712 985.198 298.904C985.198 299.064 985.198 299.24 985.198 299.432H963.262V296.888H983.374L982.03 297.896C982.03 296.072 981.63 294.456 980.83 293.048C980.062 291.608 979.006 290.488 977.662 289.688C976.318 288.888 974.766 288.488 973.006 288.488C971.278 288.488 969.726 288.888 968.35 289.688C966.974 290.488 965.902 291.608 965.134 293.048C964.366 294.488 963.982 296.136 963.982 297.992V298.52C963.982 300.44 964.398 302.136 965.23 303.608C966.094 305.048 967.278 306.184 968.782 307.016C970.318 307.816 972.062 308.216 974.014 308.216C975.55 308.216 976.974 307.944 978.286 307.4C979.63 306.856 980.782 306.024 981.742 304.904L983.662 307.112C982.542 308.456 981.134 309.48 979.438 310.184C977.774 310.888 975.934 311.24 973.918 311.24ZM991.463 311V285.8H994.727V292.664L994.391 291.464C995.095 289.544 996.279 288.088 997.943 287.096C999.607 286.072 1001.67 285.56 1004.14 285.56V288.872C1004.01 288.872 1003.88 288.872 1003.75 288.872C1003.62 288.84 1003.5 288.824 1003.37 288.824C1000.71 288.824 998.631 289.64 997.127 291.272C995.623 292.872 994.871 295.16 994.871 298.136V311H991.463ZM1020.1 311.24C1017.48 311.24 1015.18 310.696 1013.19 309.608C1011.21 308.488 1009.66 306.968 1008.54 305.048C1007.42 303.096 1006.86 300.872 1006.86 298.376C1006.86 295.88 1007.38 293.672 1008.44 291.752C1009.53 289.832 1011 288.328 1012.86 287.24C1014.74 286.12 1016.86 285.56 1019.19 285.56C1021.56 285.56 1023.66 286.104 1025.48 287.192C1027.34 288.248 1028.79 289.752 1029.85 291.704C1030.9 293.624 1031.43 295.848 1031.43 298.376C1031.43 298.536 1031.42 298.712 1031.38 298.904C1031.38 299.064 1031.38 299.24 1031.38 299.432H1009.45V296.888H1029.56L1028.22 297.896C1028.22 296.072 1027.82 294.456 1027.02 293.048C1026.25 291.608 1025.19 290.488 1023.85 289.688C1022.5 288.888 1020.95 288.488 1019.19 288.488C1017.46 288.488 1015.91 288.888 1014.54 289.688C1013.16 290.488 1012.09 291.608 1011.32 293.048C1010.55 294.488 1010.17 296.136 1010.17 297.992V298.52C1010.17 300.44 1010.58 302.136 1011.42 303.608C1012.28 305.048 1013.46 306.184 1014.97 307.016C1016.5 307.816 1018.25 308.216 1020.2 308.216C1021.74 308.216 1023.16 307.944 1024.47 307.4C1025.82 306.856 1026.97 306.024 1027.93 304.904L1029.85 307.112C1028.73 308.456 1027.32 309.48 1025.62 310.184C1023.96 310.888 1022.12 311.24 1020.1 311.24Z" fill="black"/>
</svg>
